<?xml version="1.0" encoding="UTF-8"?>
<!DOCTYPE svg PUBLIC "-//W3C//DTD SVG 1.1//EN" "http://www.w3.org/Graphics/SVG/1.1/DTD/svg11.dtd">
<!-- Creator: CorelDRAW -->
<svg xmlns="http://www.w3.org/2000/svg" xml:space="preserve" width="50.2225mm" height="20.8652mm" version="1.1" style="shape-rendering:geometricPrecision; text-rendering:geometricPrecision; image-rendering:optimizeQuality; fill-rule:evenodd; clip-rule:evenodd"
viewBox="0 0 3217.09 1336.56"
 xmlns:xlink="http://www.w3.org/1999/xlink"
 xmlns:xodm="http://www.corel.com/coreldraw/odm/2003">
 <defs>
  <style type="text/css">
   <![CDATA[
    .fil0 {fill:black}
    .fil2 {fill:#FD6C00}
    .fil4 {fill:#FEDBC5}
    .fil1 {fill:#FEFEFE}
    .fil3 {fill:#FF9A52}
   ]]>
  </style>
 </defs>
 <g id="Слой_x0020_1">
  <metadata id="CorelCorpID_0Corel-Layer"/>
  <g id="_2599186327152">
   <path class="fil0" d="M-0 1335.5l1458.63 1.06 345.57 -667.46 -173.02 -335.38c-48.06,-91.26 -128.81,-257.15 -173.45,-333.61l-1457.05 -0.1 -0.68 1335.5z"/>
   <path class="fil1" d="M1154.63 365.96c-295.32,78.17 -310.62,418.64 -111.25,555.94 213.91,147.32 552.09,-27.5 484.03,-326.92 -38.3,-168.52 -216.49,-270.39 -372.78,-229.02z"/>
   <path class="fil1" d="M735.72 617.2c-34.89,-4 -245.29,-6.97 -260.54,3.59 -13.69,18.86 -6.98,85.71 -3.96,114.3l111.39 2.91 0.53 59.35c-15.07,72.6 -281.2,52.08 -244.82,-161.31 10.22,-59.96 51.53,-110.68 104.04,-124.72 33.6,-8.98 78.85,-5.33 107.53,4.62 28.73,9.97 50.4,33.32 75.31,39.98 21.88,-20.72 78.17,-86.73 88.42,-110.56 -58.53,-87.71 -279.73,-122.06 -406.58,-35.79 -257.86,175.37 -142.15,615.07 247.57,560.53 35.99,-5.03 72.65,-19.81 100.63,-33.42 14.53,-7.07 74.41,-39.75 80.39,-54.7 5.01,-12.54 4.07,-242.69 0.1,-264.8z"/>
   <path class="fil0" d="M1221.77 508.03c-198.82,0.49 -190.24,323.46 5.41,319.04 192.82,-4.36 192.43,-319.53 -5.41,-319.04z"/>
  </g>
  <g id="_2599186327344">
   <path class="fil2" d="M1817.03 1330.04l1395.78 0.06c6.77,-56.5 4.71,-1300.45 -0.6,-1329.5l-1393.3 -0.6 -1.88 1330.04z"/>
   <path class="fil1" d="M2671.54 567.98l0.81 374.76c35.47,8.79 137.54,5.3 178.39,3.27 7.29,-78.87 -10.52,-336.58 5.52,-386.04l186.25 -0.27 1 -175.36 -557.92 0.04 0.12 171.44c30.68,2.22 158.42,-2.41 173.7,3.36 39.93,15.1 0.69,-15.98 12.15,8.79z"/>
   <path class="fil3" d="M2101.75 951.38c2.38,17.48 50.91,9.51 92.09,9.51 29.38,0 80.28,4.36 100.76,-5.89 6.78,-21.73 5.7,-449.49 4.19,-545.96 -0.86,-54.76 -20.94,-38.84 -148.39,-38.96 -79.47,-0.07 -56.34,-7.55 -56.34,294.23 0,66.27 -6.03,256.51 3.06,279.98l4.63 7.1z"/>
   <path class="fil1" d="M2101.75 951.38c37.74,0.25 156.28,4.73 185.73,-3.3 7.46,-53.11 7.44,-548.52 -3.8,-563.35 -12.57,-9.7 -160.98,-9.29 -175.28,-1.08 -21.42,34.38 6.13,479.12 -6.65,567.73z"/>
   <path class="fil4" d="M2671.54 567.98c-11.46,-24.76 27.79,6.32 -12.15,-8.79 -15.28,-5.78 -143.01,-1.15 -173.7,-3.36l-0.12 -171.44 557.92 -0.04 -1 175.36 -186.25 0.27c-16.04,49.46 1.77,307.18 -5.52,386.04 -40.84,2.03 -142.92,5.52 -178.39,-3.27l0.12 10.41c20.49,8.49 166.32,8.17 182.32,-1.86 7.23,-6.73 6.58,-33.51 6.51,-42.72 -0.12,-16.35 -0.19,-32.66 -0.2,-49.03 -0.01,-32.54 0,-65.08 0,-97.62 0,-36.34 -4.34,-167.51 2.41,-188.94 8.83,-10.2 -5.06,-4.73 18.84,-8.18l119.66 0.53c19.46,0.12 35.09,3.35 42.42,-4.92 8.42,-17.42 8.58,-158.81 0.07,-177.06 -12.26,-14.05 -241.4,-5.32 -275.79,-5.32 -77.73,0 -214.92,-8.06 -285.49,1.56 -9.13,23.77 -9.4,162.68 0.16,184.6l188.15 3.8z"/>
   <path class="fil3" d="M2672.47 953.16l-0.12 -10.41 -0.81 -374.76 -188.15 -3.8c-9.56,-21.92 -9.29,-160.83 -0.16,-184.6 70.56,-9.61 207.76,-1.56 285.49,-1.56 34.39,0 263.53,-8.73 275.79,5.32 8.51,18.25 8.35,159.64 -0.07,177.06 -7.33,8.27 -22.96,5.04 -42.42,4.92l-119.66 -0.53c-23.9,3.45 -10.01,-2.02 -18.84,8.18l165.94 0.43c38.8,-4.36 26.1,-28.81 25.77,-98.93 -0.07,-16.23 -0.18,-32.62 -0.03,-48.85 0.67,-71.18 5.68,-55.65 -140.04,-55.65 -78.7,0 -405.27,-5.23 -437.35,3.66 -12.42,24.34 -12.4,171.83 0.02,196.19l185.94 3.97 0.5 356.6c0.53,5.02 0.29,5.65 1.55,10.21 3.06,11.03 2.2,6.51 6.66,12.54z"/>
  </g>
 </g>
</svg>
